<svg width="142" height="115" viewBox="0 0 142 115" fill="none" xmlns="http://www.w3.org/2000/svg">
<g clip-path="url(#clip0_142_3145)">
<mask id="mask0_142_3145" style="mask-type:luminance" maskUnits="userSpaceOnUse" x="0" y="0" width="142" height="115">
<path d="M141.538 0H0V115H141.538V0Z" fill="white"/>
</mask>
<g mask="url(#mask0_142_3145)">
<path d="M109.692 4.4231H31.8461C21.0978 4.4231 12.3846 13.1363 12.3846 23.8846V161.885C12.3846 172.633 21.0978 181.346 31.8461 181.346H109.692C120.441 181.346 129.154 172.633 129.154 161.885V23.8846C129.154 13.1363 120.441 4.4231 109.692 4.4231Z" fill="url(#paint0_linear_142_3145)"/>
<path d="M108.808 8.84619H32.7307C23.9367 8.84619 16.8076 15.9752 16.8076 24.7693V161C16.8076 169.794 23.9367 176.923 32.7307 176.923H108.808C117.602 176.923 124.731 169.794 124.731 161V24.7693C124.731 15.9752 117.602 8.84619 108.808 8.84619Z" fill="#A0A0A0"/>
<path d="M108.808 11.0577H32.7308C25.1581 11.0577 19.0192 17.1966 19.0192 24.7693V161C19.0192 168.573 25.1581 174.712 32.7308 174.712H108.808C116.38 174.712 122.519 168.573 122.519 161V24.7693C122.519 17.1966 116.38 11.0577 108.808 11.0577Z" fill="url(#paint1_linear_142_3145)"/>
<path d="M84.4808 8.84619H57.0577C54.3706 8.84619 52.1923 11.0245 52.1923 13.7116C52.1923 16.3987 54.3706 18.577 57.0577 18.577H84.4808C87.1678 18.577 89.3461 16.3987 89.3461 13.7116C89.3461 11.0245 87.1678 8.84619 84.4808 8.84619Z" fill="url(#paint2_linear_142_3145)"/>
<path d="M33.6149 24.8269H107.924C112.533 24.8271 116.269 28.5635 116.269 33.1726V68.5574C116.269 73.1667 112.533 76.9038 107.924 76.9041H33.6149C29.0057 76.9038 25.2692 73.1667 25.2692 68.5574V33.1726C25.2695 28.5635 29.0058 24.8271 33.6149 24.8269Z" fill="white" stroke="#DEE2E6"/>
<mask id="mask1_142_3145" style="mask-type:luminance" maskUnits="userSpaceOnUse" x="31" y="30" width="29" height="29">
<path d="M53.0769 30.9615H38.0384C34.6185 30.9615 31.8461 33.7339 31.8461 37.1539V52.1923C31.8461 55.6122 34.6185 58.3846 38.0384 58.3846H53.0769C56.4968 58.3846 59.2692 55.6122 59.2692 52.1923V37.1539C59.2692 33.7339 56.4968 30.9615 53.0769 30.9615Z" fill="white"/>
</mask>
<g mask="url(#mask1_142_3145)">
<path d="M53.0769 30.9615H38.0384C34.6185 30.9615 31.8461 33.7339 31.8461 37.1539V52.1923C31.8461 55.6122 34.6185 58.3846 38.0384 58.3846H53.0769C56.4968 58.3846 59.2692 55.6122 59.2692 52.1923V37.1539C59.2692 33.7339 56.4968 30.9615 53.0769 30.9615Z" fill="#F98012"/>
</g>
<path d="M101.51 35.3846H66.5673C65.468 35.3846 64.5769 36.2758 64.5769 37.375C64.5769 38.4743 65.468 39.3654 66.5673 39.3654H101.51C102.609 39.3654 103.5 38.4743 103.5 37.375C103.5 36.2758 102.609 35.3846 101.51 35.3846Z" fill="#999999"/>
<path d="M109.913 44.2308H66.125C65.27 44.2308 64.5769 44.9239 64.5769 45.7789C64.5769 46.6339 65.27 47.327 66.125 47.327H109.913C110.768 47.327 111.462 46.6339 111.462 45.7789C111.462 44.9239 110.768 44.2308 109.913 44.2308Z" fill="#CCCCCC"/>
<path d="M106.375 50.4231H66.125C65.27 50.4231 64.5769 51.1162 64.5769 51.9712C64.5769 52.8262 65.27 53.5192 66.125 53.5192H106.375C107.23 53.5192 107.923 52.8262 107.923 51.9712C107.923 51.1162 107.23 50.4231 106.375 50.4231Z" fill="#CCCCCC"/>
<path d="M94.875 56.6154H66.125C65.27 56.6154 64.5769 57.3085 64.5769 58.1634C64.5769 59.0184 65.27 59.7115 66.125 59.7115H94.875C95.73 59.7115 96.4231 59.0184 96.4231 58.1634C96.4231 57.3085 95.73 56.6154 94.875 56.6154Z" fill="#D8D8D8"/>
</g>
<path d="M141.538 61.9231H1.52588e-05V115H141.538V61.9231Z" fill="url(#paint3_linear_142_3145)"/>
</g>
<defs>
<linearGradient id="paint0_linear_142_3145" x1="12.3846" y1="4.4231" x2="175.061" y2="111.79" gradientUnits="userSpaceOnUse">
<stop stop-color="#D8D8D8"/>
<stop offset="0.5" stop-color="#B8B8B8"/>
<stop offset="1" stop-color="#888888"/>
</linearGradient>
<linearGradient id="paint1_linear_142_3145" x1="19.0192" y1="11.0577" x2="19.0192" y2="174.712" gradientUnits="userSpaceOnUse">
<stop stop-color="#F5F5F5"/>
<stop offset="1" stop-color="#D0D0D0"/>
</linearGradient>
<linearGradient id="paint2_linear_142_3145" x1="52.1923" y1="8.84619" x2="56.9622" y2="27.0585" gradientUnits="userSpaceOnUse">
<stop stop-color="#D8D8D8"/>
<stop offset="0.5" stop-color="#B8B8B8"/>
<stop offset="1" stop-color="#888888"/>
</linearGradient>
<linearGradient id="paint3_linear_142_3145" x1="1.52588e-05" y1="61.9231" x2="1.52588e-05" y2="115" gradientUnits="userSpaceOnUse">
<stop stop-color="white" stop-opacity="0"/>
<stop offset="1" stop-color="white"/>
</linearGradient>
<clipPath id="clip0_142_3145">
<rect width="141.538" height="115" fill="white"/>
</clipPath>
</defs>
</svg>
